<?xml version="1.0" encoding="UTF-8"?>
<svg width="130px" height="36px" viewBox="0 0 130 36" version="1.1" xmlns="http://www.w3.org/2000/svg" xmlns:xlink="http://www.w3.org/1999/xlink">
    <!-- Generator: Sketch 44.1 (41455) - http://www.bohemiancoding.com/sketch -->
    <title>svg/Discord-Logo+Wordmark-White</title>
    <desc>Created with Sketch.</desc>
    <defs></defs>
    <g id="Page-1" stroke="none" stroke-width="1" fill="none" fill-rule="evenodd" opacity="0.100000001">
        <g id="errors" transform="translate(-655.000000, -968.000000)" fill="#4F545C">
            <g id="Left-Nav" transform="translate(655.000000, 968.000000)">
                <g id="Discord-Logo+Wordmark-White">
                    <g id="Layer_1">
                        <g id="Group">
                            <path d="M19.4181818,15.138 C18.3818182,15.138 17.5636364,16.02 17.5636364,17.118 C17.5636364,18.216 18.4,19.098 19.4181818,19.098 C20.4545455,19.098 21.2727273,18.216 21.2727273,17.118 C21.2727273,16.02 20.4363636,15.138 19.4181818,15.138 L19.4181818,15.138 Z" id="Shape"></path>
                            <path d="M12.7818182,15.138 C11.7454545,15.138 10.9272727,16.02 10.9272727,17.118 C10.9272727,18.216 11.7636364,19.098 12.7818182,19.098 C13.8181818,19.098 14.6363636,18.216 14.6363636,17.118 C14.6545455,16.02 13.8181818,15.138 12.7818182,15.138 L12.7818182,15.138 Z" id="Shape"></path>
                            <path d="M3.74643061,0 C1.68132496,0 0,1.66351589 0,3.70674735 L0,27.9362179 C0,29.9794493 1.93697336,31.9542789 4.00207901,31.9542789 L24.841032,31.9542789 L23.5019989,28.3340151 L25.8412336,30.4676551 L28.0525414,32.4747231 L32,35.856 L32,27.9362179 L32,26.1280484 L32,3.70674735 C31.9817247,1.66351589 30.3003998,0 28.2352941,0 L3.74643061,0 Z M21.1810394,23.4157943 C21.1810394,23.4157943 20.5231296,22.6382814 19.9748715,21.9692587 C22.368932,21.300236 23.2826956,19.8356188 23.2826956,19.8356188 C22.5334095,20.3238245 21.8206739,20.6673767 21.1810394,20.9024387 C20.2672758,21.2821543 19.3900628,21.5172163 18.5311251,21.6799516 C16.776699,22.0054221 15.1684752,21.9150136 13.7978298,21.6618699 C12.7561393,21.4629713 11.8606511,21.1917458 11.1113649,20.884357 C10.6910337,20.7216218 10.2341519,20.5227231 9.77727013,20.2695794 C9.72244432,20.233416 9.6676185,20.2153343 9.61279269,20.179171 C9.57624215,20.1610893 9.55796688,20.1430076 9.5396916,20.1430076 C9.21073672,19.9621906 9.02798401,19.8356188 9.02798401,19.8356188 C9.02798401,19.8356188 9.90519703,21.2640726 12.2261565,21.951177 C11.6778983,22.6382814 11.0017133,23.4338759 11.0017133,23.4338759 C6.96287836,23.3073041 5.42775557,20.7035401 5.42775557,20.7035401 C5.42775557,14.9354796 8.05939463,10.2523207 8.05939463,10.2523207 C10.6910337,8.31757943 13.1764706,8.37182451 13.1764706,8.37182451 L13.3592233,8.58880484 C10.0696745,9.51097126 8.57110223,10.9394251 8.57110223,10.9394251 C8.57110223,10.9394251 8.9731582,10.7224448 9.64934323,10.4331377 C11.6047973,9.58329803 13.1581953,9.3663177 13.7978298,9.29399092 C13.9074814,9.27590923 13.9988578,9.25782753 14.1085094,9.25782753 C15.223301,9.11317398 16.4842947,9.07701059 17.8001142,9.22166415 C19.536265,9.42056278 21.4003427,9.92685023 23.3009709,10.9394251 C23.3009709,10.9394251 21.8572244,9.58329803 18.7504283,8.66113162 L19.0062821,8.37182451 C19.0062821,8.37182451 21.5099943,8.31757943 24.1233581,10.2523207 C24.1233581,10.2523207 26.7549971,14.9354796 26.7549971,20.7035401 C26.7549971,20.6854584 25.2198744,23.2892224 21.1810394,23.4157943 L21.1810394,23.4157943 Z" id="Shape"></path>
                        </g>
                        <path d="M47.8872077,7.866 L41.9504814,7.866 L41.9504814,14.58 L45.9023384,18.162 L45.9023384,11.646 L48.0123796,11.646 C49.3535076,11.646 50.0151307,12.294 50.0151307,13.338 L50.0151307,18.324 C50.0151307,19.368 49.389271,20.07 48.0123796,20.07 L41.9325997,20.07 L41.9325997,23.868 L47.869326,23.868 C51.0522696,23.886 54.0385144,22.284 54.0385144,18.612 L54.0385144,13.248 C54.0563961,9.504 51.0701513,7.866 47.8872077,7.866 L47.8872077,7.866 Z M79.0013755,18.612 L79.0013755,13.104 C79.0013755,11.124 82.5419532,10.674 83.6148556,12.654 L86.8872077,11.322 C85.5997249,8.478 83.2572215,7.65 81.3081155,7.65 C78.1251719,7.65 74.9779917,9.504 74.9779917,13.104 L74.9779917,18.612 C74.9779917,22.248 78.1251719,24.066 81.2365887,24.066 C83.2393398,24.066 85.6354883,23.076 86.9587345,20.484 L83.4539202,18.864 C82.5955983,21.078 79.0013755,20.538 79.0013755,18.612 L79.0013755,18.612 Z M68.1829436,13.86 C66.9491059,13.59 66.1265475,13.14 66.0729023,12.366 C66.1444292,10.512 68.9876204,10.44 70.650619,12.222 L73.2792297,10.188 C71.6341128,8.172 69.7744154,7.632 67.8610729,7.632 C64.9463549,7.632 62.1210454,9.288 62.1210454,12.42 C62.1210454,15.462 64.4456671,17.1 67.002751,17.496 C68.3081155,17.676 69.7565337,18.198 69.7207703,19.098 C69.6134801,20.808 66.1086657,20.718 64.5171939,18.774 L61.9779917,21.168 C63.4621733,23.094 65.4828061,24.066 67.3782669,24.066 C70.2929849,24.066 73.5295736,22.374 73.6547455,19.278 C73.8335626,15.372 71.0082531,14.382 68.1829436,13.86 L68.1829436,13.86 Z M56.2022008,23.85 L60.2077029,23.85 L60.2077029,7.866 L56.2022008,7.866 L56.2022008,23.85 L56.2022008,23.85 Z M123.741403,7.866 L117.804677,7.866 L117.804677,14.58 L121.756534,18.162 L121.756534,11.646 L123.866575,11.646 C125.207703,11.646 125.869326,12.294 125.869326,13.338 L125.869326,18.324 C125.869326,19.368 125.243466,20.07 123.866575,20.07 L117.786795,20.07 L117.786795,23.868 L123.741403,23.868 C126.924347,23.886 129.910591,22.284 129.910591,18.612 L129.910591,13.248 C129.910591,9.504 126.924347,7.866 123.741403,7.866 L123.741403,7.866 Z M94.6121045,7.65 C91.3218707,7.65 88.0495186,9.45 88.0495186,13.14 L88.0495186,18.594 C88.0495186,22.248 91.3397524,24.084 94.647868,24.084 C97.9381018,24.084 101.210454,22.248 101.210454,18.594 L101.210454,13.14 C101.210454,9.468 97.9023384,7.65 94.6121045,7.65 L94.6121045,7.65 Z M97.1870702,18.594 C97.1870702,19.746 95.8995873,20.34 94.6299862,20.34 C93.3425034,20.34 92.0550206,19.782 92.0550206,18.594 L92.0550206,13.14 C92.0550206,11.97 93.30674,11.34 94.5584594,11.34 C95.8638239,11.34 97.1870702,11.898 97.1870702,13.14 L97.1870702,18.594 L97.1870702,18.594 Z M115.587345,13.14 C115.497937,9.396 112.958735,7.884 109.686382,7.884 L103.338377,7.884 L103.338377,23.868 L107.397524,23.868 L107.397524,18.792 L108.112792,18.792 L111.796424,23.868 L116.803301,23.868 L112.475928,18.378 C114.389271,17.766 115.587345,16.092 115.587345,13.14 L115.587345,13.14 Z M109.757909,15.3 L107.397524,15.3 L107.397524,11.646 L109.757909,11.646 C112.27923,11.646 112.27923,15.3 109.757909,15.3 L109.757909,15.3 Z" id="Shape"></path>
                    </g>
                </g>
            </g>
        </g>
    </g>
</svg>